<svg xmlns="http://www.w3.org/2000/svg" xmlns:xlink="http://www.w3.org/1999/xlink" viewBox="0,0,256,256" width="50px" height="50px" fill-rule="nonzero"><g fill="#ffffff" fill-rule="nonzero" stroke="none" stroke-width="1" stroke-linecap="butt" stroke-linejoin="miter" stroke-miterlimit="10" stroke-dasharray="" stroke-dashoffset="0" font-family="none" font-weight="none" font-size="none" text-anchor="none" style="mix-blend-mode: normal"><g transform="scale(5.12,5.12)"><path d="M28.99219,7c-5.009,0 -9.5833,2.44291 -11.7793,6.87891c-1.135,-0.751 -2.46542,-1.15625 -3.85742,-1.15625c-3.704,0 -6.74519,2.8883 -6.99219,6.5293c-3.782,1.378 -6.36328,5.00613 -6.36328,9.07813c0,5.332 4.33792,9.66992 9.66992,9.66992h14.50977c-0.11,-0.652 -0.17969,-1.317 -0.17969,-2c0,-6.627 5.373,-12 12,-12c6.218,0 11.33045,4.72816 11.93945,10.78516c1.285,-1.543 2.06055,-3.52455 2.06055,-5.68555c0,-4.561 -3.44509,-8.33175 -7.87109,-8.84375c0.01,-0.191 0.01367,-0.37755 0.01367,-0.56055c0,-7.251 -5.89939,-12.69531 -13.15039,-12.69531zM36,26c-5.511,0 -10,4.489 -10,10c0,5.511 4.489,10 10,10c2.39651,0 4.59739,-0.85101 6.32227,-2.26367l5.9707,5.9707l1.41406,-1.41406l-5.9707,-5.9707c1.41266,-1.72488 2.26367,-3.92576 2.26367,-6.32227c0,-5.511 -4.489,-10 -10,-10zM36,28c4.43012,0 8,3.56988 8,8c0,4.43012 -3.56988,8 -8,8c-4.43012,0 -8,-3.56988 -8,-8c0,-4.43012 3.56988,-8 8,-8z"></path></g></g></svg>