<svg xmlns="http://www.w3.org/2000/svg" xmlns:xlink="http://www.w3.org/1999/xlink" viewBox="0,0,256,256" width="50px" height="50px" fill-rule="nonzero"><g fill="#ffffff" fill-rule="nonzero" stroke="none" stroke-width="1" stroke-linecap="butt" stroke-linejoin="miter" stroke-miterlimit="10" stroke-dasharray="" stroke-dashoffset="0" font-family="none" font-weight="none" font-size="none" text-anchor="none" style="mix-blend-mode: normal"><g transform="scale(5.12,5.12)"><path d="M45,2c-1.10547,0 -2,0.89453 -2,2c0,0.29297 0.07422,0.5625 0.1875,0.8125l-8,11.1875c-0.0625,-0.00391 -0.125,0 -0.1875,0c-0.39844,0 -0.78125,0.10938 -1.09375,0.3125l-6.90625,-3.4375c-0.06641,-1.04687 -0.9375,-1.875 -2,-1.875c-1.10547,0 -2,0.89453 -2,2c0,0.10547 0.01563,0.21094 0.03125,0.3125l-7.3125,5.8125c-0.22266,-0.08594 -0.46484,-0.125 -0.71875,-0.125c-1,0 -1.82031,0.73047 -1.96875,1.6875l-6.8125,2.75c-0.33984,-0.26562 -0.75781,-0.4375 -1.21875,-0.4375c-1.10547,0 -2,0.89453 -2,2c0,1.10547 0.89453,2 2,2c1.00781,0 1.83203,-0.74609 1.96875,-1.71875l6.8125,-2.71875c0.33984,0.26563 0.75781,0.4375 1.21875,0.4375c1.10547,0 2,-0.89453 2,-2c0,-0.10547 -0.01562,-0.21094 -0.03125,-0.3125l7.3125,-5.8125c0.22266,0.08594 0.46484,0.125 0.71875,0.125c0.39844,0 0.78125,-0.10937 1.09375,-0.3125l6.90625,3.4375c0.06641,1.04688 0.9375,1.875 2,1.875c1.10547,0 2,-0.89453 2,-2c0,-0.29297 -0.07422,-0.5625 -0.1875,-0.8125l8,-11.1875c0.0625,0.00391 0.125,0 0.1875,0c1.10547,0 2,-0.89453 2,-2c0,-1.10547 -0.89453,-2 -2,-2zM41,15v35h8v-35zM21,24v26h8v-26zM31,29v21h8v-21zM11,32v18h8v-18zM1,36v14h8v-14z"></path></g></g></svg>