<svg xmlns="http://www.w3.org/2000/svg" xmlns:xlink="http://www.w3.org/1999/xlink" viewBox="0,0,256,256" width="60px" height="60px" fill-rule="nonzero"><g fill="#0a9854" fill-rule="nonzero" stroke="none" stroke-width="1" stroke-linecap="butt" stroke-linejoin="miter" stroke-miterlimit="10" stroke-dasharray="" stroke-dashoffset="0" font-family="none" font-weight="none" font-size="none" text-anchor="none" style="mix-blend-mode: normal"><g transform="scale(8.53333,8.53333)"><path d="M15,3c-6.627,0 -12,5.373 -12,12c0,6.627 5.373,12 12,12c6.627,0 12,-5.373 12,-12c0,-6.627 -5.373,-12 -12,-12zM15,22.5c-0.828,0 -1.5,-0.672 -1.5,-1.5c0,-0.828 0.672,-1.5 1.5,-1.5c0.828,0 1.5,0.672 1.5,1.5c0,0.828 -0.672,1.5 -1.5,1.5zM17.068,15.5c-0.662,0.611 -1.068,1.012 -1.068,1.5h-2c0,-1.389 0.949,-2.265 1.711,-2.97c0.799,-0.738 1.289,-1.231 1.289,-2.03c0,-1.103 -0.897,-2 -2,-2c-1.103,0 -2,0.897 -2,2h-2c0,-2.206 1.794,-4 4,-4c2.206,0 4,1.794 4,4c0,1.715 -1.071,2.704 -1.932,3.5z"></path></g></g></svg>