<svg xmlns="http://www.w3.org/2000/svg" xmlns:xlink="http://www.w3.org/1999/xlink" viewBox="0,0,256,256" width="50px" height="50px" fill-rule="nonzero"><g fill="#ffffff" fill-rule="nonzero" stroke="none" stroke-width="1" stroke-linecap="butt" stroke-linejoin="miter" stroke-miterlimit="10" stroke-dasharray="" stroke-dashoffset="0" font-family="none" font-weight="none" font-size="none" text-anchor="none" style="mix-blend-mode: normal"><g transform="scale(5.12,5.12)"><path d="M6.8125,5c-0.68359,0.06641 -1.28516,0.48047 -1.59375,1.09375c0,0 -1.42187,2.46094 -3.5625,2.84375c-1.08594,0.19922 -1.80859,1.24219 -1.60937,2.32813c0.19922,1.08594 1.24219,1.80859 2.32813,1.60938c2.08984,-0.375 3.57813,-1.48437 4.625,-2.5625c1.27344,1.33594 3.19531,2.6875 6,2.6875c2.80469,0 4.72656,-1.35156 6,-2.6875c1.27344,1.33984 3.19531,2.6875 6,2.6875c2.80469,0 4.72656,-1.34766 6,-2.6875c1.27344,1.33984 3.19531,2.6875 6,2.6875c2.80469,0 4.72656,-1.34766 6,-2.6875c1.05078,1.08203 2.55078,2.19531 4.65625,2.5625c0.71875,0.15625 1.46094,-0.09375 1.94141,-0.65234c0.47656,-0.55469 0.61328,-1.32812 0.35156,-2.01562c-0.26172,-0.68359 -0.87891,-1.17187 -1.60547,-1.26953c-2.16406,-0.375 -3.5625,-2.84375 -3.5625,-2.84375c-0.34766,-0.66797 -1.03906,-1.08203 -1.78906,-1.07422c-0.75391,0.00781 -1.4375,0.43359 -1.77344,1.10547c0,0 -1.51953,2.875 -4.21875,2.875c-2.69922,0 -4.21875,-2.875 -4.21875,-2.875c-0.34375,-0.66797 -1.03125,-1.08984 -1.78125,-1.08984c-0.75,0 -1.4375,0.42188 -1.78125,1.08984c0,0 -1.52344,2.875 -4.21875,2.875c-2.69531,0 -4.21875,-2.875 -4.21875,-2.875c-0.34375,-0.66797 -1.03125,-1.08984 -1.78125,-1.08984c-0.75,0 -1.4375,0.42188 -1.78125,1.08984c0,0 -1.52734,2.875 -4.21875,2.875c-2.69141,0 -4.21875,-2.875 -4.21875,-2.875c-0.35937,-0.74609 -1.14453,-1.19531 -1.96875,-1.125zM6.8125,21c-0.68359,0.06641 -1.28516,0.48047 -1.59375,1.09375c0,0 -1.41797,2.46094 -3.5625,2.84375c-1.08594,0.19922 -1.80859,1.24219 -1.60937,2.32813c0.19922,1.08594 1.24219,1.80859 2.32813,1.60938c2.08984,-0.375 3.57813,-1.48437 4.625,-2.5625c1.27344,1.33594 3.19531,2.6875 6,2.6875c2.80469,0 4.72656,-1.35156 6,-2.6875c1.27344,1.33984 3.19531,2.6875 6,2.6875c2.80469,0 4.72656,-1.34766 6,-2.6875c1.27344,1.33984 3.19531,2.6875 6,2.6875c2.80469,0 4.72656,-1.34766 6,-2.6875c1.05078,1.08203 2.55078,2.19531 4.65625,2.5625c0.71875,0.15625 1.46094,-0.09375 1.94141,-0.65234c0.47656,-0.55469 0.61328,-1.32812 0.35156,-2.01562c-0.26172,-0.68359 -0.87891,-1.17187 -1.60547,-1.26953c-2.16406,-0.375 -3.5625,-2.84375 -3.5625,-2.84375c-0.34766,-0.66797 -1.03906,-1.08203 -1.78906,-1.07422c-0.75391,0.00781 -1.4375,0.43359 -1.77344,1.10547c0,0 -1.51953,2.875 -4.21875,2.875c-2.69922,0 -4.21875,-2.875 -4.21875,-2.875c-0.34375,-0.66797 -1.03125,-1.08984 -1.78125,-1.08984c-0.75,0 -1.4375,0.42188 -1.78125,1.08984c0,0 -1.52344,2.875 -4.21875,2.875c-2.69531,0 -4.21875,-2.875 -4.21875,-2.875c-0.34375,-0.66797 -1.03125,-1.08984 -1.78125,-1.08984c-0.75,0 -1.4375,0.42188 -1.78125,1.08984c0,0 -1.52734,2.875 -4.21875,2.875c-2.69141,0 -4.21875,-2.875 -4.21875,-2.875c-0.35937,-0.74609 -1.14453,-1.19531 -1.96875,-1.125zM6.8125,37c-0.68359,0.06641 -1.28516,0.48047 -1.59375,1.09375c0,0 -1.41797,2.46094 -3.5625,2.84375c-1.08594,0.19922 -1.80859,1.24219 -1.60937,2.32813c0.19922,1.08594 1.24219,1.80859 2.32813,1.60938c2.08984,-0.375 3.57813,-1.48437 4.625,-2.5625c1.27344,1.33594 3.19531,2.6875 6,2.6875c2.80469,0 4.72656,-1.35156 6,-2.6875c1.27344,1.33984 3.19531,2.6875 6,2.6875c2.80469,0 4.72656,-1.34766 6,-2.6875c1.27344,1.33984 3.19531,2.6875 6,2.6875c2.80469,0 4.72656,-1.34766 6,-2.6875c1.05078,1.08203 2.55078,2.19531 4.65625,2.5625c0.71875,0.15625 1.46094,-0.09375 1.94141,-0.65234c0.47656,-0.55469 0.61328,-1.32812 0.35156,-2.01562c-0.26172,-0.68359 -0.87891,-1.17187 -1.60547,-1.26953c-2.16406,-0.375 -3.5625,-2.84375 -3.5625,-2.84375c-0.34766,-0.66797 -1.03906,-1.08203 -1.78906,-1.07422c-0.75391,0.00781 -1.4375,0.43359 -1.77344,1.10547c0,0 -1.51953,2.875 -4.21875,2.875c-2.69922,0 -4.21875,-2.875 -4.21875,-2.875c-0.34375,-0.66797 -1.03125,-1.08984 -1.78125,-1.08984c-0.75,0 -1.4375,0.42188 -1.78125,1.08984c0,0 -1.52344,2.875 -4.21875,2.875c-2.69531,0 -4.21875,-2.875 -4.21875,-2.875c-0.34375,-0.66797 -1.03125,-1.08984 -1.78125,-1.08984c-0.75,0 -1.4375,0.42188 -1.78125,1.08984c0,0 -1.52734,2.875 -4.21875,2.875c-2.69141,0 -4.21875,-2.875 -4.21875,-2.875c-0.35937,-0.74609 -1.14453,-1.19531 -1.96875,-1.125z"></path></g></g></svg>